HIERARCHY
ROOT Hips
{
 OFFSET 0.000000 0.000000 0.000000
 CHANNELS 6 Xposition Yposition Zposition Yrotation Xrotation Zrotation
 JOINT Chest
 {
  OFFSET 0.000000 11.395451 -0.039534
  CHANNELS 3 Yrotation Xrotation Zrotation
  JOINT Chest2
  {
   OFFSET 0.000000 9.398669 0.071813
   CHANNELS 3 Yrotation Xrotation Zrotation
   JOINT Chest3
   {
    OFFSET 0.000000 8.489801 0.000000
    CHANNELS 3 Yrotation Xrotation Zrotation
    JOINT Chest4
    {
     OFFSET 0.000000 8.489801 0.000000
     CHANNELS 3 Yrotation Xrotation Zrotation
     JOINT Neck
     {
      OFFSET 0.000000 12.404889 0.000000
      CHANNELS 3 Yrotation Xrotation Zrotation
      JOINT Head
      {
       OFFSET 0.000000 8.903270 0.092239
       CHANNELS 3 Yrotation Xrotation Zrotation
       End Site
       {
        OFFSET 0.000000 17.592497 0.007158
       }
      }
     }
     JOINT RightCollar
     {
      OFFSET -3.196775 6.966722 0.000000
      CHANNELS 3 Yrotation Xrotation Zrotation
      JOINT RightShoulder
      {
       OFFSET -15.955896 0.000000 0.000000
       CHANNELS 3 Yrotation Xrotation Zrotation
       JOINT RightElbow
       {
        OFFSET -24.792472 0.000000 0.000000
        CHANNELS 3 Yrotation Xrotation Zrotation
        JOINT RightWrist
        {
         OFFSET -20.900115 0.000000 0.025002
         CHANNELS 3 Yrotation Xrotation Zrotation
         End Site
         {
          OFFSET -16.056692 0.000000 0.000000
         }
        }
       }
      }
     }
     JOINT LeftCollar
     {
      OFFSET 3.196775 6.966722 0.000000
      CHANNELS 3 Yrotation Xrotation Zrotation
      JOINT LeftShoulder
      {
       OFFSET 15.955896 0.000000 0.000000
       CHANNELS 3 Yrotation Xrotation Zrotation
       JOINT LeftElbow
       {
        OFFSET 24.792472 0.000000 0.000000
        CHANNELS 3 Yrotation Xrotation Zrotation
        JOINT LeftWrist
        {
         OFFSET 20.900115 0.000000 0.025002
         CHANNELS 3 Yrotation Xrotation Zrotation
         End Site
         {
          OFFSET 16.056692 0.000000 0.000000
         }
        }
       }
      }
     }
    }
   }
  }
 }
 JOINT RightHip
 {
  OFFSET -9.568995 0.193718 0.019767
  CHANNELS 3 Yrotation Xrotation Zrotation
  JOINT RightKnee
  {
   OFFSET 0.000000 -56.649296 0.015402
   CHANNELS 3 Yrotation Xrotation Zrotation
   JOINT RightAnkle
   {
    OFFSET 0.000000 -41.365147 0.021264
    CHANNELS 3 Yrotation Xrotation Zrotation
    JOINT RightToe
    {
     OFFSET 0.000000 -7.465940 17.672538
     CHANNELS 3 Yrotation Xrotation Zrotation
     End Site
     {
      OFFSET 0.000000 -1.736315 7.837145
     }
    }
   }
  }
 }
 JOINT LeftHip
 {
  OFFSET 9.568995 0.193718 0.019767
  CHANNELS 3 Yrotation Xrotation Zrotation
  JOINT LeftKnee
  {
   OFFSET 0.000000 -56.649296 0.015402
   CHANNELS 3 Yrotation Xrotation Zrotation
   JOINT LeftAnkle
   {
    OFFSET 0.000000 -41.365147 0.021264
    CHANNELS 3 Yrotation Xrotation Zrotation
    JOINT LeftToe
    {
     OFFSET 0.000000 -7.465940 17.672538
     CHANNELS 3 Yrotation Xrotation Zrotation
     End Site
     {
      OFFSET 0.000000 -1.736315 7.837145
     }
    }
   }
  }
 }
}
MOTION
Frames: 15
Frame Time: 0.016667
-119.679595 106.481763 303.276704 -163.598019 -7.279149 0.190928 1.817128 4.904681 1.481078 0.791181 2.185630 0.638411 0.791181 2.185630 0.638411 0.591030 1.640054 0.475920 5.565613 15.636862 -1.140626 10.798661 -6.842114 -4.166544 0.762266 5.102356 6.497850 5.913123 -13.608900 75.761600 3.652682 -1.516114 -0.863590 -2.882104 0.599340 2.281256 0.235891 2.651078 -8.927845 -0.607216 -9.463347 -74.772223 -4.381819 -0.033063 -2.589520 5.293348 0.990746 -2.426830 -0.641889 11.836435 0.053600 -1.733986 1.472716 -0.522418 1.448848 -7.415377 1.984025 0.000000 0.000000 0.000000 4.828510 10.613574 2.900717 -0.618931 7.119454 -0.267560 10.730824 -9.176717 -2.800991 0.000000 0.000000 0.000000
-119.790899 106.479446 303.364006 -163.589780 -7.270534 0.136231 1.804883 4.860249 1.457031 0.786152 2.165751 0.628046 0.786152 2.165752 0.628046 0.587318 1.625127 0.468191 5.588403 15.670678 -1.092013 10.820700 -6.782499 -4.081060 0.749017 5.122762 6.606164 5.842838 -13.480697 75.892114 3.615648 -1.309665 -0.839512 -2.831310 0.612823 2.243518 0.295650 2.720057 -8.821280 -0.567986 -9.301525 -74.863932 -4.391913 -0.032903 -2.573528 5.231577 0.998842 -2.407838 -0.558005 11.759920 0.059211 -1.938111 1.530123 -0.567715 1.545869 -7.402233 2.066534 -0.000000 0.000000 -0.000000 4.764803 10.595312 2.861892 -0.588849 7.107895 -0.301034 10.725313 -9.253447 -2.716233 0.000000 0.000000 0.000000
-119.902202 106.477129 303.451307 -163.581548 -7.261911 0.081536 1.792611 4.815825 1.432991 0.781106 2.145877 0.617684 0.781106 2.145877 0.617683 0.583592 1.610202 0.460465 5.611230 15.704479 -1.043382 10.842853 -6.722899 -3.995586 0.735681 5.143288 6.714433 5.772771 -13.352241 76.022247 3.578320 -1.103229 -0.815934 -2.780630 0.626360 2.205661 0.355511 2.788877 -8.714589 -0.529014 -9.139604 -74.955411 -4.402015 -0.032768 -2.557541 5.169807 1.006983 -2.388866 -0.474226 11.683318 0.064682 -2.142171 1.587655 -0.613388 1.642918 -7.389244 2.149051 0.000000 0.000000 -0.000000 4.701090 10.577065 2.823100 -0.558769 7.096268 -0.334495 10.719528 -9.330120 -2.631390 0.000000 -0.000000 0.000000
-120.010514 106.474302 303.539860 -163.576992 -7.249155 0.030041 1.778928 4.770356 1.410314 0.775417 2.125540 0.607943 0.775417 2.125540 0.607943 0.579382 1.594931 0.453208 5.635923 15.742429 -1.001004 10.870467 -6.654818 -3.922020 0.722388 5.166364 6.816036 5.702042 -13.226422 76.148992 3.516078 -0.918375 -0.808986 -2.673722 0.635714 2.122444 0.413779 2.864855 -8.616280 -0.505714 -8.997112 -75.039005 -4.399291 -0.024587 -2.534429 5.113862 1.017741 -2.372277 -0.396133 11.605741 0.066437 -2.318316 1.642608 -0.650229 1.723006 -7.377816 2.221692 0.000000 0.000000 0.000000 4.646185 10.549605 2.786474 -0.536944 7.090337 -0.362432 10.720640 -9.402347 -2.553099 0.000000 0.000000 0.000000
-120.114978 106.470521 303.630941 -163.578865 -7.225866 -0.016719 1.763936 4.720043 1.389387 0.769141 2.103054 0.599007 0.769141 2.103054 0.599007 0.574730 1.578049 0.446558 5.663208 15.788650 -0.967122 10.905367 -6.570340 -3.864382 0.706962 5.190972 6.907088 5.629626 -13.101839 76.275972 3.413782 -0.761434 -0.829463 -2.465920 0.645517 1.962290 0.469001 2.952755 -8.529439 -0.505230 -8.882179 -75.111809 -4.375121 0.003269 -2.499656 5.068668 1.034505 -2.361188 -0.324374 11.522204 0.062672 -2.450223 1.694821 -0.672153 1.774595 -7.369991 2.277771 -0.000000 -0.000000 -0.000000 4.606825 10.503209 2.753705 -0.531250 7.093961 -0.382667 10.734980 -9.468866 -2.484442 0.000000 0.000000 0.000000
-120.216449 106.466230 303.723273 -163.584425 -7.198455 -0.060282 1.747531 4.668681 1.369846 0.762222 2.080105 0.590702 0.762222 2.080105 0.590702 0.569593 1.560820 0.440383 5.692393 15.839009 -0.939492 10.945769 -6.477408 -3.818645 0.691616 5.218134 6.991460 5.556537 -12.979856 76.399532 3.286663 -0.626394 -0.866845 -2.201871 0.651480 1.756817 0.522686 3.047895 -8.451018 -0.520272 -8.786785 -75.176956 -4.338021 0.039051 -2.457689 5.029319 1.053843 -2.352384 -0.258277 11.437733 0.055207 -2.554228 1.744427 -0.685021 1.809200 -7.363602 2.323968 -0.000000 -0.000000 0.000000 4.576263 10.447585 2.723123 -0.533794 7.103337 -0.397400 10.756331 -9.531004 -2.422376 0.000000 0.000000 0.000000
-120.314507 106.462242 303.814271 -163.589080 -7.182010 -0.102059 1.728024 4.626618 1.351921 0.753875 2.061287 0.583105 0.753875 2.061287 0.583105 0.563378 1.546689 0.434739 5.723178 15.885278 -0.917661 10.991578 -6.391327 -3.784637 0.683117 5.253320 7.074181 5.484909 -12.867570 76.505813 3.155738 -0.516263 -0.905237 -1.959062 0.635681 1.555573 0.577602 3.143442 -8.380334 -0.544543 -8.706262 -75.235921 -4.300920 0.055763 -2.414963 4.986897 1.068070 -2.338730 -0.201401 11.366467 0.045964 -2.651474 1.789160 -0.697505 1.844415 -7.353730 2.370461 0.000000 0.000000 0.000000 4.543109 10.402643 2.691821 -0.529178 7.112736 -0.407676 10.773074 -9.588260 -2.364372 0.000000 0.000000 0.000000
-120.409191 106.458864 303.903054 -163.589380 -7.184621 -0.142239 1.703343 4.600211 1.336111 0.743156 2.049421 0.576434 0.743156 2.049421 0.576434 0.555375 1.537771 0.429788 5.755686 15.921918 -0.902674 11.043809 -6.322229 -3.764868 0.686400 5.299875 7.156850 5.415346 -12.769146 76.588728 3.031235 -0.440749 -0.936963 -1.758917 0.576109 1.365034 0.635712 3.237564 -8.318622 -0.577977 -8.642093 -75.289062 -4.267004 0.042582 -2.373257 4.934998 1.072474 -2.314581 -0.157968 11.317063 0.035331 -2.751163 1.826460 -0.713674 1.888558 -7.337368 2.421913 0.000000 0.000000 0.000000 4.500448 10.377983 2.657658 -0.509265 7.120200 -0.412250 10.780039 -9.639243 -2.311023 -0.000000 -0.000000 0.000000
-120.500460 106.455790 303.990502 -163.588745 -7.198194 -0.180636 1.675586 4.583111 1.321890 0.731025 2.041690 0.570460 0.731025 2.041690 0.570460 0.546305 1.531954 0.425358 5.789761 15.954461 -0.893498 11.101353 -6.259989 -3.756817 0.696643 5.354403 7.237885 5.347147 -12.680580 76.654543 2.903122 -0.390062 -0.969389 -1.579436 0.494247 1.179075 0.695045 3.332115 -8.264693 -0.620596 -8.592812 -75.336016 -4.233201 0.010354 -2.330956 4.880017 1.071759 -2.285636 -0.123691 11.280892 0.023030 -2.844111 1.858860 -0.729426 1.933328 -7.317528 2.473662 0.000000 0.000000 0.000000 4.455218 10.364007 2.622724 -0.482196 7.127667 -0.412349 10.782453 -9.685323 -2.261751 0.000000 0.000000 0.000000
-120.587775 106.452916 304.076672 -163.592891 -7.213542 -0.218093 1.649317 4.566605 1.307944 0.719548 2.034230 0.564589 0.719548 2.034230 0.564589 0.537725 1.526342 0.421002 5.824680 15.991279 -0.886554 11.160931 -6.189530 -3.752765 0.705971 5.412266 7.317542 5.280473 -12.596772 76.707966 2.761992 -0.337835 -1.009196 -1.433375 0.436985 1.028158 0.752459 3.425774 -8.214225 -0.666253 -8.549302 -75.377159 -4.203137 -0.035340 -2.289445 4.832235 1.072373 -2.261829 -0.089372 11.246150 0.009995 -2.923880 1.891745 -0.741233 1.971395 -7.298332 2.521902 0.000000 0.000000 0.000000 4.416818 10.351828 2.590463 -0.456998 7.135238 -0.412718 10.784257 -9.730114 -2.212255 0.000000 0.000000 0.000000
-120.670840 106.449982 304.161564 -163.602972 -7.226521 -0.255302 1.625903 4.547118 1.293781 0.709349 2.025455 0.558602 0.709349 2.025455 0.558602 0.530105 1.519743 0.416557 5.859900 16.035451 -0.880670 11.220868 -6.105316 -3.750041 0.711691 5.473956 7.395472 5.217233 -12.516692 76.749163 2.601064 -0.267277 -1.059565 -1.327180 0.426925 0.926353 0.806168 3.518724 -8.165970 -0.714006 -8.509826 -75.411833 -4.176234 -0.099612 -2.248029 4.798219 1.077727 -2.249007 -0.051454 11.207764 -0.002618 -2.985777 1.927333 -0.747998 1.996399 -7.282085 2.564002 0.000000 -0.000000 -0.000000 4.387219 10.336960 2.562507 -0.435727 7.143946 -0.415723 10.785721 -9.776432 -2.159085 -0.000000 0.000000 -0.000000
-120.749950 106.447246 304.245177 -163.617832 -7.241285 -0.291568 1.603977 4.528219 1.279897 0.699806 2.016947 0.552721 0.699806 2.016947 0.552721 0.522976 1.513347 0.412188 5.895983 16.083892 -0.877023 11.282857 -6.012886 -3.751316 0.716509 5.538992 7.472001 5.155459 -12.441450 76.778015 2.427152 -0.195247 -1.117546 -1.254849 0.441304 0.859315 0.857937 3.610797 -8.121193 -0.764753 -8.476109 -75.440698 -4.153139 -0.177306 -2.207437 4.771391 1.084420 -2.241345 -0.013492 11.170804 -0.015957 -3.034496 1.963381 -0.750762 2.014688 -7.266452 2.602589 0.000000 0.000000 0.000000 4.364446 10.323886 2.537224 -0.416325 7.152767 -0.419001 10.786578 -9.821456 -2.105691 -0.000000 -0.000000 -0.000000
-120.825448 106.445386 304.327564 -163.639734 -7.261102 -0.325655 1.584005 4.511904 1.266470 0.691116 2.009595 0.547013 0.691116 2.009595 0.547013 0.516485 1.507818 0.407945 5.933873 16.135731 -0.875550 11.348697 -5.913776 -3.756881 0.720597 5.601293 7.548401 5.089513 -12.369114 76.798725 2.251244 -0.145887 -1.180631 -1.210748 0.459063 0.814801 0.909938 3.700140 -8.079321 -0.815116 -8.444226 -75.466140 -4.139256 -0.247412 -2.171080 4.742322 1.088683 -2.231259 0.023043 11.138672 -0.032559 -3.077680 1.998598 -0.749218 2.037986 -7.248603 2.641739 0.000000 0.000000 0.000000 4.351979 10.317175 2.513171 -0.401647 7.158745 -0.420212 10.789963 -9.860359 -2.058120 0.000000 -0.000000 0.000000
-120.897997 106.445033 304.408156 -163.669973 -7.290558 -0.356516 1.565973 4.499991 1.253718 0.683268 2.004209 0.541568 0.683268 2.004209 0.541568 0.510623 1.503765 0.403893 5.973830 16.193512 -0.876512 11.418757 -5.803223 -3.767047 0.725179 5.658486 7.624750 5.015631 -12.299010 76.811289 2.074396 -0.130415 -1.248312 -1.201554 0.476080 0.796516 0.963168 3.784460 -8.041106 -0.864268 -8.410954 -75.489106 -4.135767 -0.301537 -2.139226 4.705612 1.087748 -2.213821 0.056158 11.116044 -0.055462 -3.118995 2.033185 -0.741451 2.073327 -7.227439 2.684447 0.000000 0.000000 0.000000 4.353117 10.323219 2.489344 -0.395435 7.158404 -0.417615 10.798657 -9.888967 -2.020608 0.000000 -0.000000 0.000000
-120.966935 106.445556 304.487522 -163.707247 -7.325076 -0.385179 1.549903 4.490654 1.241415 0.676278 1.999975 0.536293 0.676278 1.999975 0.536293 0.505402 1.500578 0.399966 6.015596 16.254685 -0.879652 11.492645 -5.685987 -3.781487 0.728997 5.712957 7.700972 4.937542 -12.231885 76.815692 1.895715 -0.137607 -1.320814 -1.220612 0.496815 0.800605 1.016592 3.866057 -8.005801 -0.913018 -8.379509 -75.508660 -4.141432 -0.348007 -2.111494 4.666669 1.084395 -2.193941 0.087877 11.098242 -0.081601 -3.154781 2.066943 -0.729370 2.113681 -7.204074 2.727728 0.000000 0.000000 -0.000000 4.364574 10.335611 2.466743 -0.393963 7.155241 -0.412954 10.809938 -9.911473 -1.988935 -0.000000 -0.000000 -0.000000
